<mxfile host="app.diagrams.net" agent="Mozilla/5.0 (Windows NT 10.0; Win64; x64) AppleWebKit/537.36 (KHTML, like Gecko) Chrome/133.0.0.0 Safari/537.36 OPR/118.0.0.0" version="27.0.9">
  <diagram name="Strona-1" id="xCsK3-bNOWCkroTRgC9p">
    <mxGraphModel grid="1" page="1" gridSize="10" guides="1" tooltips="1" connect="1" arrows="1" fold="1" pageScale="1" pageWidth="1654" pageHeight="1169" math="0" shadow="0">
      <root>
        <mxCell id="0" />
        <mxCell id="1" parent="0" />
        <mxCell id="NBQ4iwB7kyEO6f9DM8Vm-1" value="Osoba&amp;nbsp;&lt;div&gt;&lt;i&gt;&lt;font style=&quot;font-size: 9px; font-weight: normal; color: rgb(204, 102, 0);&quot;&gt;klasa abstrakcyjna&lt;/font&gt;&lt;/i&gt;&lt;/div&gt;" style="swimlane;fontStyle=1;align=center;verticalAlign=top;childLayout=stackLayout;horizontal=1;startSize=40;horizontalStack=0;resizeParent=1;resizeParentMax=0;resizeLast=0;collapsible=1;marginBottom=0;whiteSpace=wrap;html=1;fillColor=#ffcc99;strokeColor=#36393d;" vertex="1" parent="1">
          <mxGeometry x="1136.94" y="20" width="210" height="562" as="geometry" />
        </mxCell>
        <mxCell id="wnNe19hSWPq940-PAh5z-2" value="+ &lt;b&gt;Osoba&lt;/b&gt;(String, String, TypOsoby)" style="text;strokeColor=none;fillColor=none;align=left;verticalAlign=top;spacingLeft=4;spacingRight=4;overflow=hidden;rotatable=0;points=[[0,0.5],[1,0.5]];portConstraint=eastwest;whiteSpace=wrap;html=1;" vertex="1" parent="NBQ4iwB7kyEO6f9DM8Vm-1">
          <mxGeometry y="40" width="210" height="30" as="geometry" />
        </mxCell>
        <mxCell id="rhBKlkivPUK1FHKw_JW7-6" value="" style="line;strokeWidth=1;fillColor=none;align=left;verticalAlign=middle;spacingTop=-1;spacingLeft=3;spacingRight=3;rotatable=0;labelPosition=right;points=[];portConstraint=eastwest;strokeColor=inherit;" vertex="1" parent="NBQ4iwB7kyEO6f9DM8Vm-1">
          <mxGeometry y="70" width="210" height="8" as="geometry" />
        </mxCell>
        <mxCell id="NBQ4iwB7kyEO6f9DM8Vm-19" value="# &lt;b&gt;IMIONA&lt;/b&gt;: String[]" style="text;strokeColor=none;fillColor=none;align=left;verticalAlign=top;spacingLeft=4;spacingRight=4;overflow=hidden;rotatable=0;points=[[0,0.5],[1,0.5]];portConstraint=eastwest;whiteSpace=wrap;html=1;" vertex="1" parent="NBQ4iwB7kyEO6f9DM8Vm-1">
          <mxGeometry y="78" width="210" height="30" as="geometry" />
        </mxCell>
        <mxCell id="NBQ4iwB7kyEO6f9DM8Vm-22" value="# &lt;b&gt;NAZWISKA&lt;/b&gt;: String[]" style="text;strokeColor=none;fillColor=none;align=left;verticalAlign=top;spacingLeft=4;spacingRight=4;overflow=hidden;rotatable=0;points=[[0,0.5],[1,0.5]];portConstraint=eastwest;whiteSpace=wrap;html=1;" vertex="1" parent="NBQ4iwB7kyEO6f9DM8Vm-1">
          <mxGeometry y="108" width="210" height="30" as="geometry" />
        </mxCell>
        <mxCell id="NBQ4iwB7kyEO6f9DM8Vm-18" value="# &lt;b&gt;id:&lt;/b&gt; int" style="text;strokeColor=none;fillColor=none;align=left;verticalAlign=top;spacingLeft=4;spacingRight=4;overflow=hidden;rotatable=0;points=[[0,0.5],[1,0.5]];portConstraint=eastwest;whiteSpace=wrap;html=1;" vertex="1" parent="NBQ4iwB7kyEO6f9DM8Vm-1">
          <mxGeometry y="138" width="210" height="30" as="geometry" />
        </mxCell>
        <mxCell id="rhBKlkivPUK1FHKw_JW7-7" value="# &lt;b&gt;imie: &lt;/b&gt;String" style="text;strokeColor=none;fillColor=none;align=left;verticalAlign=top;spacingLeft=4;spacingRight=4;overflow=hidden;rotatable=0;points=[[0,0.5],[1,0.5]];portConstraint=eastwest;whiteSpace=wrap;html=1;" vertex="1" parent="NBQ4iwB7kyEO6f9DM8Vm-1">
          <mxGeometry y="168" width="210" height="30" as="geometry" />
        </mxCell>
        <mxCell id="rhBKlkivPUK1FHKw_JW7-8" value="# &lt;b&gt;nazwisko: &lt;/b&gt;String" style="text;strokeColor=none;fillColor=none;align=left;verticalAlign=top;spacingLeft=4;spacingRight=4;overflow=hidden;rotatable=0;points=[[0,0.5],[1,0.5]];portConstraint=eastwest;whiteSpace=wrap;html=1;" vertex="1" parent="NBQ4iwB7kyEO6f9DM8Vm-1">
          <mxGeometry y="198" width="210" height="30" as="geometry" />
        </mxCell>
        <mxCell id="NBQ4iwB7kyEO6f9DM8Vm-36" value="- &lt;b&gt;random:&lt;/b&gt; Random" style="text;strokeColor=none;fillColor=none;align=left;verticalAlign=top;spacingLeft=4;spacingRight=4;overflow=hidden;rotatable=0;points=[[0,0.5],[1,0.5]];portConstraint=eastwest;whiteSpace=wrap;html=1;" vertex="1" parent="NBQ4iwB7kyEO6f9DM8Vm-1">
          <mxGeometry y="228" width="210" height="30" as="geometry" />
        </mxCell>
        <mxCell id="NBQ4iwB7kyEO6f9DM8Vm-20" value="#&lt;b&gt; typ:&lt;/b&gt; TypOsoby" style="text;strokeColor=none;fillColor=none;align=left;verticalAlign=top;spacingLeft=4;spacingRight=4;overflow=hidden;rotatable=0;points=[[0,0.5],[1,0.5]];portConstraint=eastwest;whiteSpace=wrap;html=1;" vertex="1" parent="NBQ4iwB7kyEO6f9DM8Vm-1">
          <mxGeometry y="258" width="210" height="30" as="geometry" />
        </mxCell>
        <mxCell id="NBQ4iwB7kyEO6f9DM8Vm-2" value="+ &lt;b&gt;TypOsoby:&lt;/b&gt; enum&lt;div&gt;&lt;font style=&quot;font-size: 9px; color: rgb(153, 153, 153);&quot;&gt;&lt;i&gt;(PERSONEL, PACJENT)&lt;/i&gt;&lt;/font&gt;&lt;/div&gt;" style="text;strokeColor=none;fillColor=none;align=left;verticalAlign=top;spacingLeft=4;spacingRight=4;overflow=hidden;rotatable=0;points=[[0,0.5],[1,0.5]];portConstraint=eastwest;whiteSpace=wrap;html=1;" vertex="1" parent="NBQ4iwB7kyEO6f9DM8Vm-1">
          <mxGeometry y="288" width="210" height="40" as="geometry" />
        </mxCell>
        <mxCell id="NBQ4iwB7kyEO6f9DM8Vm-37" value="- &lt;b&gt;usedIds:&lt;/b&gt; Set&amp;lt;Integer&amp;gt;" style="text;strokeColor=none;fillColor=none;align=left;verticalAlign=top;spacingLeft=4;spacingRight=4;overflow=hidden;rotatable=0;points=[[0,0.5],[1,0.5]];portConstraint=eastwest;whiteSpace=wrap;html=1;" vertex="1" parent="NBQ4iwB7kyEO6f9DM8Vm-1">
          <mxGeometry y="328" width="210" height="30" as="geometry" />
        </mxCell>
        <mxCell id="NBQ4iwB7kyEO6f9DM8Vm-3" value="" style="line;strokeWidth=1;fillColor=none;align=left;verticalAlign=middle;spacingTop=-1;spacingLeft=3;spacingRight=3;rotatable=0;labelPosition=right;points=[];portConstraint=eastwest;strokeColor=inherit;" vertex="1" parent="NBQ4iwB7kyEO6f9DM8Vm-1">
          <mxGeometry y="358" width="210" height="8" as="geometry" />
        </mxCell>
        <mxCell id="NBQ4iwB7kyEO6f9DM8Vm-27" value="+ &lt;b&gt;dodajRole&lt;/b&gt;(TypOsoby): TypOsoby" style="text;strokeColor=none;fillColor=none;align=left;verticalAlign=top;spacingLeft=4;spacingRight=4;overflow=hidden;rotatable=0;points=[[0,0.5],[1,0.5]];portConstraint=eastwest;whiteSpace=wrap;html=1;" vertex="1" parent="NBQ4iwB7kyEO6f9DM8Vm-1">
          <mxGeometry y="366" width="210" height="44" as="geometry" />
        </mxCell>
        <mxCell id="NBQ4iwB7kyEO6f9DM8Vm-4" value="- &lt;b&gt;generateUniqueId&lt;/b&gt;(): int" style="text;strokeColor=none;fillColor=none;align=left;verticalAlign=top;spacingLeft=4;spacingRight=4;overflow=hidden;rotatable=0;points=[[0,0.5],[1,0.5]];portConstraint=eastwest;whiteSpace=wrap;html=1;" vertex="1" parent="NBQ4iwB7kyEO6f9DM8Vm-1">
          <mxGeometry y="410" width="210" height="32" as="geometry" />
        </mxCell>
        <mxCell id="NBQ4iwB7kyEO6f9DM8Vm-24" value="+ &lt;b&gt;losujImie&lt;/b&gt;(): String" style="text;strokeColor=none;fillColor=none;align=left;verticalAlign=top;spacingLeft=4;spacingRight=4;overflow=hidden;rotatable=0;points=[[0,0.5],[1,0.5]];portConstraint=eastwest;whiteSpace=wrap;html=1;" vertex="1" parent="NBQ4iwB7kyEO6f9DM8Vm-1">
          <mxGeometry y="442" width="210" height="30" as="geometry" />
        </mxCell>
        <mxCell id="NBQ4iwB7kyEO6f9DM8Vm-26" value="+ &lt;b&gt;losujNazwisko&lt;/b&gt;(): String&lt;div&gt;&lt;br&gt;&lt;/div&gt;" style="text;strokeColor=none;fillColor=none;align=left;verticalAlign=top;spacingLeft=4;spacingRight=4;overflow=hidden;rotatable=0;points=[[0,0.5],[1,0.5]];portConstraint=eastwest;whiteSpace=wrap;html=1;" vertex="1" parent="NBQ4iwB7kyEO6f9DM8Vm-1">
          <mxGeometry y="472" width="210" height="30" as="geometry" />
        </mxCell>
        <mxCell id="NBQ4iwB7kyEO6f9DM8Vm-23" value="# &lt;b&gt;sformatowaneId&lt;/b&gt;(): String&lt;div&gt;&lt;br&gt;&lt;/div&gt;" style="text;strokeColor=none;fillColor=none;align=left;verticalAlign=top;spacingLeft=4;spacingRight=4;overflow=hidden;rotatable=0;points=[[0,0.5],[1,0.5]];portConstraint=eastwest;whiteSpace=wrap;html=1;" vertex="1" parent="NBQ4iwB7kyEO6f9DM8Vm-1">
          <mxGeometry y="502" width="210" height="30" as="geometry" />
        </mxCell>
        <mxCell id="NBQ4iwB7kyEO6f9DM8Vm-28" value="+ &lt;b&gt;toString&lt;/b&gt;(): abstract String" style="text;strokeColor=none;fillColor=none;align=left;verticalAlign=top;spacingLeft=4;spacingRight=4;overflow=hidden;rotatable=0;points=[[0,0.5],[1,0.5]];portConstraint=eastwest;whiteSpace=wrap;html=1;" vertex="1" parent="NBQ4iwB7kyEO6f9DM8Vm-1">
          <mxGeometry y="532" width="210" height="30" as="geometry" />
        </mxCell>
        <mxCell id="rhBKlkivPUK1FHKw_JW7-42" style="edgeStyle=orthogonalEdgeStyle;rounded=0;orthogonalLoop=1;jettySize=auto;html=1;exitX=0.25;exitY=0;exitDx=0;exitDy=0;entryX=0;entryY=0.5;entryDx=0;entryDy=0;dashed=1;dashPattern=8 8;" edge="1" parent="1" source="NBQ4iwB7kyEO6f9DM8Vm-9" target="rhBKlkivPUK1FHKw_JW7-19">
          <mxGeometry relative="1" as="geometry">
            <mxPoint x="496.94" y="344" as="targetPoint" />
            <Array as="points">
              <mxPoint x="923.94" y="623" />
              <mxPoint x="466.94" y="623" />
              <mxPoint x="466.94" y="303" />
            </Array>
          </mxGeometry>
        </mxCell>
        <mxCell id="rhBKlkivPUK1FHKw_JW7-46" style="edgeStyle=orthogonalEdgeStyle;rounded=0;orthogonalLoop=1;jettySize=auto;html=1;exitX=0.75;exitY=0;exitDx=0;exitDy=0;entryX=0;entryY=0.5;entryDx=0;entryDy=0;" edge="1" parent="1" source="NBQ4iwB7kyEO6f9DM8Vm-9" target="NBQ4iwB7kyEO6f9DM8Vm-28">
          <mxGeometry relative="1" as="geometry" />
        </mxCell>
        <mxCell id="rhBKlkivPUK1FHKw_JW7-50" style="edgeStyle=orthogonalEdgeStyle;rounded=0;orthogonalLoop=1;jettySize=auto;html=1;exitX=0.5;exitY=0;exitDx=0;exitDy=0;entryX=1;entryY=0.5;entryDx=0;entryDy=0;dashed=1;dashPattern=8 8;" edge="1" parent="1" source="NBQ4iwB7kyEO6f9DM8Vm-9" target="wnNe19hSWPq940-PAh5z-20">
          <mxGeometry relative="1" as="geometry">
            <Array as="points">
              <mxPoint x="1026.94" y="653" />
              <mxPoint x="1026.94" y="307" />
            </Array>
          </mxGeometry>
        </mxCell>
        <mxCell id="NBQ4iwB7kyEO6f9DM8Vm-9" value="Pacjent" style="swimlane;fontStyle=1;align=center;verticalAlign=top;childLayout=stackLayout;horizontal=1;startSize=26;horizontalStack=0;resizeParent=1;resizeParentMax=0;resizeLast=0;collapsible=1;marginBottom=0;whiteSpace=wrap;html=1;fillColor=#fad7ac;strokeColor=#b46504;" vertex="1" parent="1">
          <mxGeometry x="866.94" y="653" width="270" height="238" as="geometry" />
        </mxCell>
        <mxCell id="wnNe19hSWPq940-PAh5z-8" value="+ &lt;b&gt;Pacjent&lt;/b&gt;(String, String, Stan, List&amp;lt;Objawy&amp;gt;)&amp;nbsp;" style="text;strokeColor=none;fillColor=none;align=left;verticalAlign=top;spacingLeft=4;spacingRight=4;overflow=hidden;rotatable=0;points=[[0,0.5],[1,0.5]];portConstraint=eastwest;whiteSpace=wrap;html=1;" vertex="1" parent="NBQ4iwB7kyEO6f9DM8Vm-9">
          <mxGeometry y="26" width="270" height="34" as="geometry" />
        </mxCell>
        <mxCell id="rhBKlkivPUK1FHKw_JW7-9" value="" style="line;strokeWidth=1;fillColor=none;align=left;verticalAlign=middle;spacingTop=-1;spacingLeft=3;spacingRight=3;rotatable=0;labelPosition=right;points=[];portConstraint=eastwest;strokeColor=inherit;" vertex="1" parent="NBQ4iwB7kyEO6f9DM8Vm-9">
          <mxGeometry y="60" width="270" height="8" as="geometry" />
        </mxCell>
        <mxCell id="NBQ4iwB7kyEO6f9DM8Vm-10" value="# &lt;b&gt;stan&lt;/b&gt;: Stan" style="text;strokeColor=none;fillColor=none;align=left;verticalAlign=top;spacingLeft=4;spacingRight=4;overflow=hidden;rotatable=0;points=[[0,0.5],[1,0.5]];portConstraint=eastwest;whiteSpace=wrap;html=1;" vertex="1" parent="NBQ4iwB7kyEO6f9DM8Vm-9">
          <mxGeometry y="68" width="270" height="32" as="geometry" />
        </mxCell>
        <mxCell id="rhBKlkivPUK1FHKw_JW7-54" value="# &lt;b&gt;objawy&lt;/b&gt;: List&amp;lt;Objawy&amp;gt;" style="text;strokeColor=none;fillColor=none;align=left;verticalAlign=top;spacingLeft=4;spacingRight=4;overflow=hidden;rotatable=0;points=[[0,0.5],[1,0.5]];portConstraint=eastwest;whiteSpace=wrap;html=1;" vertex="1" parent="NBQ4iwB7kyEO6f9DM8Vm-9">
          <mxGeometry y="100" width="270" height="30" as="geometry" />
        </mxCell>
        <mxCell id="NBQ4iwB7kyEO6f9DM8Vm-39" value="# &lt;b&gt;objawy&lt;/b&gt;: List&amp;lt;Objawy&amp;gt;" style="text;strokeColor=none;fillColor=none;align=left;verticalAlign=top;spacingLeft=4;spacingRight=4;overflow=hidden;rotatable=0;points=[[0,0.5],[1,0.5]];portConstraint=eastwest;whiteSpace=wrap;html=1;" vertex="1" parent="NBQ4iwB7kyEO6f9DM8Vm-9">
          <mxGeometry y="130" width="270" height="30" as="geometry" />
        </mxCell>
        <mxCell id="NBQ4iwB7kyEO6f9DM8Vm-11" value="" style="line;strokeWidth=1;fillColor=none;align=left;verticalAlign=middle;spacingTop=-1;spacingLeft=3;spacingRight=3;rotatable=0;labelPosition=right;points=[];portConstraint=eastwest;strokeColor=inherit;" vertex="1" parent="NBQ4iwB7kyEO6f9DM8Vm-9">
          <mxGeometry y="160" width="270" height="8" as="geometry" />
        </mxCell>
        <mxCell id="NBQ4iwB7kyEO6f9DM8Vm-12" value="+ &lt;b&gt;pokazObjawy&lt;/b&gt;(): void&lt;div&gt;&lt;br&gt;&lt;/div&gt;" style="text;strokeColor=none;fillColor=none;align=left;verticalAlign=top;spacingLeft=4;spacingRight=4;overflow=hidden;rotatable=0;points=[[0,0.5],[1,0.5]];portConstraint=eastwest;whiteSpace=wrap;html=1;" vertex="1" parent="NBQ4iwB7kyEO6f9DM8Vm-9">
          <mxGeometry y="168" width="270" height="32" as="geometry" />
        </mxCell>
        <mxCell id="NBQ4iwB7kyEO6f9DM8Vm-40" value="+ &lt;b&gt;toString&lt;/b&gt;(): String" style="text;strokeColor=none;fillColor=none;align=left;verticalAlign=top;spacingLeft=4;spacingRight=4;overflow=hidden;rotatable=0;points=[[0,0.5],[1,0.5]];portConstraint=eastwest;whiteSpace=wrap;html=1;" vertex="1" parent="NBQ4iwB7kyEO6f9DM8Vm-9">
          <mxGeometry y="200" width="270" height="38" as="geometry" />
        </mxCell>
        <mxCell id="rhBKlkivPUK1FHKw_JW7-48" style="edgeStyle=orthogonalEdgeStyle;rounded=0;orthogonalLoop=1;jettySize=auto;html=1;exitX=0.5;exitY=0;exitDx=0;exitDy=0;entryX=1;entryY=0.5;entryDx=0;entryDy=0;" edge="1" parent="1" source="NBQ4iwB7kyEO6f9DM8Vm-13" target="NBQ4iwB7kyEO6f9DM8Vm-28">
          <mxGeometry relative="1" as="geometry" />
        </mxCell>
        <mxCell id="NBQ4iwB7kyEO6f9DM8Vm-13" value="Personel" style="swimlane;fontStyle=1;align=center;verticalAlign=top;childLayout=stackLayout;horizontal=1;startSize=26;horizontalStack=0;resizeParent=1;resizeParentMax=0;resizeLast=0;collapsible=1;marginBottom=0;whiteSpace=wrap;html=1;fillColor=#fad7ac;strokeColor=#b46504;" vertex="1" parent="1">
          <mxGeometry x="1296.94" y="653" width="240" height="308" as="geometry" />
        </mxCell>
        <mxCell id="NBQ4iwB7kyEO6f9DM8Vm-16" value="+ &lt;b&gt;Personel&lt;/b&gt;(String, String, Rola, boolean)" style="text;strokeColor=none;fillColor=none;align=left;verticalAlign=top;spacingLeft=4;spacingRight=4;overflow=hidden;rotatable=0;points=[[0,0.5],[1,0.5]];portConstraint=eastwest;whiteSpace=wrap;html=1;" vertex="1" parent="NBQ4iwB7kyEO6f9DM8Vm-13">
          <mxGeometry y="26" width="240" height="34" as="geometry" />
        </mxCell>
        <mxCell id="rhBKlkivPUK1FHKw_JW7-14" value="" style="line;strokeWidth=1;fillColor=none;align=left;verticalAlign=middle;spacingTop=-1;spacingLeft=3;spacingRight=3;rotatable=0;labelPosition=right;points=[];portConstraint=eastwest;strokeColor=inherit;" vertex="1" parent="NBQ4iwB7kyEO6f9DM8Vm-13">
          <mxGeometry y="60" width="240" height="8" as="geometry" />
        </mxCell>
        <mxCell id="wnNe19hSWPq940-PAh5z-9" value="# &lt;b&gt;dostepnosc: &lt;/b&gt;boolean" style="text;strokeColor=none;fillColor=none;align=left;verticalAlign=top;spacingLeft=4;spacingRight=4;overflow=hidden;rotatable=0;points=[[0,0.5],[1,0.5]];portConstraint=eastwest;whiteSpace=wrap;html=1;" vertex="1" parent="NBQ4iwB7kyEO6f9DM8Vm-13">
          <mxGeometry y="68" width="240" height="30" as="geometry" />
        </mxCell>
        <mxCell id="NBQ4iwB7kyEO6f9DM8Vm-14" value="# &lt;b&gt;Rola: &lt;/b&gt;enum&lt;br&gt;&lt;font style=&quot;font-size: 9px; color: rgb(153, 153, 153);&quot;&gt;(LEKARZ, PIELĘGNIARKA)&lt;/font&gt;" style="text;strokeColor=none;fillColor=none;align=left;verticalAlign=top;spacingLeft=4;spacingRight=4;overflow=hidden;rotatable=0;points=[[0,0.5],[1,0.5]];portConstraint=eastwest;whiteSpace=wrap;html=1;" vertex="1" parent="NBQ4iwB7kyEO6f9DM8Vm-13">
          <mxGeometry y="98" width="240" height="42" as="geometry" />
        </mxCell>
        <mxCell id="wnNe19hSWPq940-PAh5z-10" value="# &lt;b&gt;rolaPersonelu: &lt;/b&gt;rola" style="text;strokeColor=none;fillColor=none;align=left;verticalAlign=top;spacingLeft=4;spacingRight=4;overflow=hidden;rotatable=0;points=[[0,0.5],[1,0.5]];portConstraint=eastwest;whiteSpace=wrap;html=1;" vertex="1" parent="NBQ4iwB7kyEO6f9DM8Vm-13">
          <mxGeometry y="140" width="240" height="30" as="geometry" />
        </mxCell>
        <mxCell id="NBQ4iwB7kyEO6f9DM8Vm-15" value="" style="line;strokeWidth=1;fillColor=none;align=left;verticalAlign=middle;spacingTop=-1;spacingLeft=3;spacingRight=3;rotatable=0;labelPosition=right;points=[];portConstraint=eastwest;strokeColor=inherit;" vertex="1" parent="NBQ4iwB7kyEO6f9DM8Vm-13">
          <mxGeometry y="170" width="240" height="8" as="geometry" />
        </mxCell>
        <mxCell id="wnNe19hSWPq940-PAh5z-11" value="+ &lt;b&gt;lecz&lt;/b&gt;(Pacjent): void" style="text;strokeColor=none;fillColor=none;align=left;verticalAlign=top;spacingLeft=4;spacingRight=4;overflow=hidden;rotatable=0;points=[[0,0.5],[1,0.5]];portConstraint=eastwest;whiteSpace=wrap;html=1;" vertex="1" parent="NBQ4iwB7kyEO6f9DM8Vm-13">
          <mxGeometry y="178" width="240" height="30" as="geometry" />
        </mxCell>
        <mxCell id="wnNe19hSWPq940-PAh5z-14" value="+ &lt;b&gt;losujDostepnosc&lt;/b&gt;(): boolean" style="text;strokeColor=none;fillColor=none;align=left;verticalAlign=top;spacingLeft=4;spacingRight=4;overflow=hidden;rotatable=0;points=[[0,0.5],[1,0.5]];portConstraint=eastwest;whiteSpace=wrap;html=1;" vertex="1" parent="NBQ4iwB7kyEO6f9DM8Vm-13">
          <mxGeometry y="208" width="240" height="30" as="geometry" />
        </mxCell>
        <mxCell id="wnNe19hSWPq940-PAh5z-12" value="+ &lt;b&gt;toString&lt;/b&gt;(): String&lt;b&gt;&amp;nbsp;&lt;/b&gt;" style="text;strokeColor=none;fillColor=none;align=left;verticalAlign=top;spacingLeft=4;spacingRight=4;overflow=hidden;rotatable=0;points=[[0,0.5],[1,0.5]];portConstraint=eastwest;whiteSpace=wrap;html=1;" vertex="1" parent="NBQ4iwB7kyEO6f9DM8Vm-13">
          <mxGeometry y="238" width="240" height="30" as="geometry" />
        </mxCell>
        <mxCell id="wnNe19hSWPq940-PAh5z-13" value="+ &lt;b&gt;ustawDostepnosc&lt;/b&gt;(): void" style="text;strokeColor=none;fillColor=none;align=left;verticalAlign=top;spacingLeft=4;spacingRight=4;overflow=hidden;rotatable=0;points=[[0,0.5],[1,0.5]];portConstraint=eastwest;whiteSpace=wrap;html=1;" vertex="1" parent="NBQ4iwB7kyEO6f9DM8Vm-13">
          <mxGeometry y="268" width="240" height="40" as="geometry" />
        </mxCell>
        <mxCell id="wnNe19hSWPq940-PAh5z-19" value="Objawy" style="swimlane;fontStyle=1;align=center;verticalAlign=top;childLayout=stackLayout;horizontal=1;startSize=26;horizontalStack=0;resizeParent=1;resizeParentMax=0;resizeLast=0;collapsible=1;marginBottom=0;whiteSpace=wrap;html=1;fillColor=#d0cee2;strokeColor=#56517e;" vertex="1" parent="1">
          <mxGeometry x="796.94" y="172" width="200" height="410" as="geometry" />
        </mxCell>
        <mxCell id="wnNe19hSWPq940-PAh5z-22" value="+ &lt;b&gt;Objawy&lt;/b&gt;(Kategoria, int, String)" style="text;strokeColor=none;fillColor=none;align=left;verticalAlign=top;spacingLeft=4;spacingRight=4;overflow=hidden;rotatable=0;points=[[0,0.5],[1,0.5]];portConstraint=eastwest;whiteSpace=wrap;html=1;" vertex="1" parent="wnNe19hSWPq940-PAh5z-19">
          <mxGeometry y="26" width="200" height="34" as="geometry" />
        </mxCell>
        <mxCell id="rhBKlkivPUK1FHKw_JW7-18" value="" style="line;strokeWidth=1;fillColor=none;align=left;verticalAlign=middle;spacingTop=-1;spacingLeft=3;spacingRight=3;rotatable=0;labelPosition=right;points=[];portConstraint=eastwest;strokeColor=inherit;" vertex="1" parent="wnNe19hSWPq940-PAh5z-19">
          <mxGeometry y="60" width="200" height="8" as="geometry" />
        </mxCell>
        <mxCell id="wnNe19hSWPq940-PAh5z-28" value="# &lt;b&gt;ciezkosc: &lt;/b&gt;int" style="text;strokeColor=none;fillColor=none;align=left;verticalAlign=top;spacingLeft=4;spacingRight=4;overflow=hidden;rotatable=0;points=[[0,0.5],[1,0.5]];portConstraint=eastwest;whiteSpace=wrap;html=1;" vertex="1" parent="wnNe19hSWPq940-PAh5z-19">
          <mxGeometry y="68" width="200" height="42" as="geometry" />
        </mxCell>
        <mxCell id="wnNe19hSWPq940-PAh5z-20" value="+ &lt;b&gt;Kategoria: &lt;/b&gt;enum&lt;br&gt;&lt;i&gt;&lt;font style=&quot;color: rgb(153, 153, 153); font-size: 9px;&quot;&gt;(oczy, werbalna, ruchowa)&lt;/font&gt;&lt;/i&gt;" style="text;strokeColor=none;fillColor=none;align=left;verticalAlign=top;spacingLeft=4;spacingRight=4;overflow=hidden;rotatable=0;points=[[0,0.5],[1,0.5]];portConstraint=eastwest;whiteSpace=wrap;html=1;" vertex="1" parent="wnNe19hSWPq940-PAh5z-19">
          <mxGeometry y="110" width="200" height="50" as="geometry" />
        </mxCell>
        <mxCell id="wnNe19hSWPq940-PAh5z-27" value="# &lt;b&gt;kategoria: &lt;/b&gt;Kategoria" style="text;strokeColor=none;fillColor=none;align=left;verticalAlign=top;spacingLeft=4;spacingRight=4;overflow=hidden;rotatable=0;points=[[0,0.5],[1,0.5]];portConstraint=eastwest;whiteSpace=wrap;html=1;" vertex="1" parent="wnNe19hSWPq940-PAh5z-19">
          <mxGeometry y="160" width="200" height="40" as="geometry" />
        </mxCell>
        <mxCell id="wnNe19hSWPq940-PAh5z-29" value="# &lt;b&gt;nazwa: &lt;/b&gt;String" style="text;strokeColor=none;fillColor=none;align=left;verticalAlign=top;spacingLeft=4;spacingRight=4;overflow=hidden;rotatable=0;points=[[0,0.5],[1,0.5]];portConstraint=eastwest;whiteSpace=wrap;html=1;" vertex="1" parent="wnNe19hSWPq940-PAh5z-19">
          <mxGeometry y="200" width="200" height="40" as="geometry" />
        </mxCell>
        <mxCell id="wnNe19hSWPq940-PAh5z-21" value="" style="line;strokeWidth=1;fillColor=none;align=left;verticalAlign=middle;spacingTop=-1;spacingLeft=3;spacingRight=3;rotatable=0;labelPosition=right;points=[];portConstraint=eastwest;strokeColor=inherit;" vertex="1" parent="wnNe19hSWPq940-PAh5z-19">
          <mxGeometry y="240" width="200" height="10" as="geometry" />
        </mxCell>
        <mxCell id="wnNe19hSWPq940-PAh5z-30" value="+ &lt;b&gt;ciezkoscWartosc&lt;/b&gt;(): int" style="text;strokeColor=none;fillColor=none;align=left;verticalAlign=top;spacingLeft=4;spacingRight=4;overflow=hidden;rotatable=0;points=[[0,0.5],[1,0.5]];portConstraint=eastwest;whiteSpace=wrap;html=1;" vertex="1" parent="wnNe19hSWPq940-PAh5z-19">
          <mxGeometry y="250" width="200" height="40" as="geometry" />
        </mxCell>
        <mxCell id="wnNe19hSWPq940-PAh5z-31" value="+ &lt;b&gt;ciezkoscOpis&lt;/b&gt;(): String" style="text;strokeColor=none;fillColor=none;align=left;verticalAlign=top;spacingLeft=4;spacingRight=4;overflow=hidden;rotatable=0;points=[[0,0.5],[1,0.5]];portConstraint=eastwest;whiteSpace=wrap;html=1;" vertex="1" parent="wnNe19hSWPq940-PAh5z-19">
          <mxGeometry y="290" width="200" height="40" as="geometry" />
        </mxCell>
        <mxCell id="wnNe19hSWPq940-PAh5z-32" value="+ &lt;b&gt;ciezkoscKategoria&lt;/b&gt;(): Kategoria" style="text;strokeColor=none;fillColor=none;align=left;verticalAlign=top;spacingLeft=4;spacingRight=4;overflow=hidden;rotatable=0;points=[[0,0.5],[1,0.5]];portConstraint=eastwest;whiteSpace=wrap;html=1;" vertex="1" parent="wnNe19hSWPq940-PAh5z-19">
          <mxGeometry y="330" width="200" height="40" as="geometry" />
        </mxCell>
        <mxCell id="wnNe19hSWPq940-PAh5z-33" value="+ &lt;b&gt;losowy&lt;/b&gt;(Kategoria): Objawy" style="text;strokeColor=none;fillColor=none;align=left;verticalAlign=top;spacingLeft=4;spacingRight=4;overflow=hidden;rotatable=0;points=[[0,0.5],[1,0.5]];portConstraint=eastwest;whiteSpace=wrap;html=1;" vertex="1" parent="wnNe19hSWPq940-PAh5z-19">
          <mxGeometry y="370" width="200" height="40" as="geometry" />
        </mxCell>
        <mxCell id="rhBKlkivPUK1FHKw_JW7-36" style="edgeStyle=orthogonalEdgeStyle;rounded=0;orthogonalLoop=1;jettySize=auto;html=1;exitX=0.25;exitY=0;exitDx=0;exitDy=0;entryX=1;entryY=0.5;entryDx=0;entryDy=0;dashed=1;dashPattern=8 8;" edge="1" parent="1" source="wnNe19hSWPq940-PAh5z-23" target="wnNe19hSWPq940-PAh5z-88">
          <mxGeometry relative="1" as="geometry">
            <Array as="points">
              <mxPoint x="716.94" y="1010" />
              <mxPoint x="716.94" y="849" />
            </Array>
          </mxGeometry>
        </mxCell>
        <mxCell id="rhBKlkivPUK1FHKw_JW7-44" style="edgeStyle=orthogonalEdgeStyle;rounded=0;orthogonalLoop=1;jettySize=auto;html=1;exitX=0.25;exitY=0;exitDx=0;exitDy=0;entryX=0;entryY=0.5;entryDx=0;entryDy=0;dashed=1;dashPattern=8 8;" edge="1" parent="1" source="wnNe19hSWPq940-PAh5z-23" target="wnNe19hSWPq940-PAh5z-76">
          <mxGeometry relative="1" as="geometry">
            <Array as="points">
              <mxPoint x="681.94" y="980" />
              <mxPoint x="116.94" y="980" />
              <mxPoint x="116.94" y="806" />
            </Array>
          </mxGeometry>
        </mxCell>
        <mxCell id="wnNe19hSWPq940-PAh5z-23" value="&lt;font style=&quot;color: rgb(0, 0, 0);&quot;&gt;SOR&lt;/font&gt;" style="swimlane;fontStyle=1;align=center;verticalAlign=top;childLayout=stackLayout;horizontal=1;startSize=26;horizontalStack=0;resizeParent=1;resizeParentMax=0;resizeLast=0;collapsible=1;marginBottom=0;whiteSpace=wrap;html=1;fillColor=#FF6666;strokeColor=#990000;strokeWidth=2;" vertex="1" parent="1">
          <mxGeometry x="626.94" y="1010" width="220" height="80" as="geometry" />
        </mxCell>
        <mxCell id="wnNe19hSWPq940-PAh5z-26" value="&lt;font style=&quot;&quot;&gt;+ &lt;font style=&quot;&quot;&gt;&lt;b&gt;&lt;font style=&quot;font-size: 13px;&quot;&gt;main&lt;/font&gt;&lt;/b&gt;(String[])&lt;/font&gt;: void&lt;/font&gt;" style="text;strokeColor=none;fillColor=none;align=left;verticalAlign=top;spacingLeft=4;spacingRight=4;overflow=hidden;rotatable=0;points=[[0,0.5],[1,0.5]];portConstraint=eastwest;whiteSpace=wrap;html=1;fontColor=default;" vertex="1" parent="wnNe19hSWPq940-PAh5z-23">
          <mxGeometry y="26" width="220" height="26" as="geometry" />
        </mxCell>
        <mxCell id="wnNe19hSWPq940-PAh5z-89" value="- &lt;b&gt;generujPersonel&lt;/b&gt;(int): List&amp;lt;Personel&amp;gt;" style="text;strokeColor=none;fillColor=none;align=left;verticalAlign=top;spacingLeft=4;spacingRight=4;overflow=hidden;rotatable=0;points=[[0,0.5],[1,0.5]];portConstraint=eastwest;whiteSpace=wrap;html=1;" vertex="1" parent="wnNe19hSWPq940-PAh5z-23">
          <mxGeometry y="52" width="220" height="28" as="geometry" />
        </mxCell>
        <mxCell id="wnNe19hSWPq940-PAh5z-42" value="StanPacjenta" style="swimlane;fontStyle=1;align=center;verticalAlign=top;childLayout=stackLayout;horizontal=1;startSize=26;horizontalStack=0;resizeParent=1;resizeParentMax=0;resizeLast=0;collapsible=1;marginBottom=0;whiteSpace=wrap;html=1;fillColor=#b1ddf0;strokeColor=#10739e;" vertex="1" parent="1">
          <mxGeometry x="496.94" y="172" width="260" height="152" as="geometry" />
        </mxCell>
        <mxCell id="wnNe19hSWPq940-PAh5z-43" value="+ &lt;b&gt;Stan&lt;/b&gt;: enum&lt;br&gt;&lt;font style=&quot;font-size: 9px; color: rgb(153, 153, 153);&quot;&gt;(NIEBIESKI, ZOLTY, CZERWONY)&lt;/font&gt;" style="text;strokeColor=none;fillColor=none;align=left;verticalAlign=top;spacingLeft=4;spacingRight=4;overflow=hidden;rotatable=0;points=[[0,0.5],[1,0.5]];portConstraint=eastwest;whiteSpace=wrap;html=1;" vertex="1" parent="wnNe19hSWPq940-PAh5z-42">
          <mxGeometry y="26" width="260" height="34" as="geometry" />
        </mxCell>
        <mxCell id="wnNe19hSWPq940-PAh5z-44" value="" style="line;strokeWidth=1;fillColor=none;align=left;verticalAlign=middle;spacingTop=-1;spacingLeft=3;spacingRight=3;rotatable=0;labelPosition=right;points=[];portConstraint=eastwest;strokeColor=inherit;" vertex="1" parent="wnNe19hSWPq940-PAh5z-42">
          <mxGeometry y="60" width="260" height="8" as="geometry" />
        </mxCell>
        <mxCell id="wnNe19hSWPq940-PAh5z-45" value="+ &lt;b&gt;generujLosowe&lt;/b&gt;(): List&amp;lt;Objawy&amp;gt;" style="text;strokeColor=none;fillColor=none;align=left;verticalAlign=top;spacingLeft=4;spacingRight=4;overflow=hidden;rotatable=0;points=[[0,0.5],[1,0.5]];portConstraint=eastwest;whiteSpace=wrap;html=1;" vertex="1" parent="wnNe19hSWPq940-PAh5z-42">
          <mxGeometry y="68" width="260" height="42" as="geometry" />
        </mxCell>
        <mxCell id="rhBKlkivPUK1FHKw_JW7-19" value="+ &lt;b&gt;przypiszStan&lt;/b&gt;(List&amp;lt;Objawy&amp;gt;): StanPacjenta" style="text;strokeColor=none;fillColor=none;align=left;verticalAlign=top;spacingLeft=4;spacingRight=4;overflow=hidden;rotatable=0;points=[[0,0.5],[1,0.5]];portConstraint=eastwest;whiteSpace=wrap;html=1;" vertex="1" parent="wnNe19hSWPq940-PAh5z-42">
          <mxGeometry y="110" width="260" height="42" as="geometry" />
        </mxCell>
        <mxCell id="wnNe19hSWPq940-PAh5z-46" value="Budżet" style="swimlane;fontStyle=1;align=center;verticalAlign=top;childLayout=stackLayout;horizontal=1;startSize=26;horizontalStack=0;resizeParent=1;resizeParentMax=0;resizeLast=0;collapsible=1;marginBottom=0;whiteSpace=wrap;html=1;fillColor=#d5e8d4;strokeColor=light-dark(#006600,#446E2C);" vertex="1" parent="1">
          <mxGeometry x="136.94" y="653" width="230" height="296" as="geometry" />
        </mxCell>
        <mxCell id="wnNe19hSWPq940-PAh5z-49" value="+ &lt;b&gt;Budzet&lt;/b&gt;(double)" style="text;strokeColor=none;fillColor=none;align=left;verticalAlign=top;spacingLeft=4;spacingRight=4;overflow=hidden;rotatable=0;points=[[0,0.5],[1,0.5]];portConstraint=eastwest;whiteSpace=wrap;html=1;" vertex="1" parent="wnNe19hSWPq940-PAh5z-46">
          <mxGeometry y="26" width="230" height="34" as="geometry" />
        </mxCell>
        <mxCell id="rhBKlkivPUK1FHKw_JW7-17" value="" style="line;strokeWidth=1;fillColor=none;align=left;verticalAlign=middle;spacingTop=-1;spacingLeft=3;spacingRight=3;rotatable=0;labelPosition=right;points=[];portConstraint=eastwest;strokeColor=inherit;" vertex="1" parent="wnNe19hSWPq940-PAh5z-46">
          <mxGeometry y="60" width="230" height="8" as="geometry" />
        </mxCell>
        <mxCell id="wnNe19hSWPq940-PAh5z-47" value="+ &lt;b&gt;REKOMENDOWANY_MAX&lt;/b&gt;: double" style="text;strokeColor=none;fillColor=none;align=left;verticalAlign=top;spacingLeft=4;spacingRight=4;overflow=hidden;rotatable=0;points=[[0,0.5],[1,0.5]];portConstraint=eastwest;whiteSpace=wrap;html=1;" vertex="1" parent="wnNe19hSWPq940-PAh5z-46">
          <mxGeometry y="68" width="230" height="34" as="geometry" />
        </mxCell>
        <mxCell id="wnNe19hSWPq940-PAh5z-77" value="- &lt;b&gt;aktualnyBudzet: &lt;/b&gt;double" style="text;strokeColor=none;fillColor=none;align=left;verticalAlign=top;spacingLeft=4;spacingRight=4;overflow=hidden;rotatable=0;points=[[0,0.5],[1,0.5]];portConstraint=eastwest;whiteSpace=wrap;html=1;" vertex="1" parent="wnNe19hSWPq940-PAh5z-46">
          <mxGeometry y="102" width="230" height="34" as="geometry" />
        </mxCell>
        <mxCell id="wnNe19hSWPq940-PAh5z-76" value="- &lt;b&gt;sumaStartowa: &lt;/b&gt;double" style="text;strokeColor=none;fillColor=none;align=left;verticalAlign=top;spacingLeft=4;spacingRight=4;overflow=hidden;rotatable=0;points=[[0,0.5],[1,0.5]];portConstraint=eastwest;whiteSpace=wrap;html=1;" vertex="1" parent="wnNe19hSWPq940-PAh5z-46">
          <mxGeometry y="136" width="230" height="34" as="geometry" />
        </mxCell>
        <mxCell id="wnNe19hSWPq940-PAh5z-48" value="" style="line;strokeWidth=1;fillColor=none;align=left;verticalAlign=middle;spacingTop=-1;spacingLeft=3;spacingRight=3;rotatable=0;labelPosition=right;points=[];portConstraint=eastwest;strokeColor=inherit;" vertex="1" parent="wnNe19hSWPq940-PAh5z-46">
          <mxGeometry y="170" width="230" height="8" as="geometry" />
        </mxCell>
        <mxCell id="wnNe19hSWPq940-PAh5z-78" value="+ &lt;b&gt;dodaj&lt;/b&gt;(double): void&lt;div&gt;&lt;br&gt;&lt;/div&gt;" style="text;strokeColor=none;fillColor=none;align=left;verticalAlign=top;spacingLeft=4;spacingRight=4;overflow=hidden;rotatable=0;points=[[0,0.5],[1,0.5]];portConstraint=eastwest;whiteSpace=wrap;html=1;" vertex="1" parent="wnNe19hSWPq940-PAh5z-46">
          <mxGeometry y="178" width="230" height="26" as="geometry" />
        </mxCell>
        <mxCell id="wnNe19hSWPq940-PAh5z-81" value="+ &lt;b&gt;ileZostalo&lt;/b&gt;(): double" style="text;strokeColor=none;fillColor=none;align=left;verticalAlign=top;spacingLeft=4;spacingRight=4;overflow=hidden;rotatable=0;points=[[0,0.5],[1,0.5]];portConstraint=eastwest;whiteSpace=wrap;html=1;" vertex="1" parent="wnNe19hSWPq940-PAh5z-46">
          <mxGeometry y="204" width="230" height="26" as="geometry" />
        </mxCell>
        <mxCell id="wnNe19hSWPq940-PAh5z-79" value="+ &lt;b&gt;nagrodaZaWyleczenie&lt;/b&gt;(double): void" style="text;strokeColor=none;fillColor=none;align=left;verticalAlign=top;spacingLeft=4;spacingRight=4;overflow=hidden;rotatable=0;points=[[0,0.5],[1,0.5]];portConstraint=eastwest;whiteSpace=wrap;html=1;" vertex="1" parent="wnNe19hSWPq940-PAh5z-46">
          <mxGeometry y="230" width="230" height="26" as="geometry" />
        </mxCell>
        <mxCell id="wnNe19hSWPq940-PAh5z-82" value="+ &lt;b&gt;toString&lt;/b&gt;(): String" style="text;strokeColor=none;fillColor=none;align=left;verticalAlign=top;spacingLeft=4;spacingRight=4;overflow=hidden;rotatable=0;points=[[0,0.5],[1,0.5]];portConstraint=eastwest;whiteSpace=wrap;html=1;" vertex="1" parent="wnNe19hSWPq940-PAh5z-46">
          <mxGeometry y="256" width="230" height="40" as="geometry" />
        </mxCell>
        <mxCell id="rhBKlkivPUK1FHKw_JW7-45" style="edgeStyle=orthogonalEdgeStyle;rounded=0;orthogonalLoop=1;jettySize=auto;html=1;exitX=0.25;exitY=0;exitDx=0;exitDy=0;entryX=0;entryY=0.5;entryDx=0;entryDy=0;dashed=1;dashPattern=8 8;" edge="1" parent="1" source="wnNe19hSWPq940-PAh5z-50" target="wnNe19hSWPq940-PAh5z-45">
          <mxGeometry relative="1" as="geometry">
            <Array as="points">
              <mxPoint x="433.94" y="260" />
            </Array>
          </mxGeometry>
        </mxCell>
        <mxCell id="wnNe19hSWPq940-PAh5z-50" value="Karetka" style="swimlane;fontStyle=1;align=center;verticalAlign=top;childLayout=stackLayout;horizontal=1;startSize=26;horizontalStack=0;resizeParent=1;resizeParentMax=0;resizeLast=0;collapsible=1;marginBottom=0;whiteSpace=wrap;html=1;fillColor=#fad9d5;strokeColor=#ae4132;" vertex="1" parent="1">
          <mxGeometry x="386.94" y="653" width="190" height="238" as="geometry" />
        </mxCell>
        <mxCell id="wnNe19hSWPq940-PAh5z-51" value="# &lt;b&gt;pacjenci&lt;/b&gt;: List&amp;lt;Pacjent&amp;gt;" style="text;strokeColor=none;fillColor=none;align=left;verticalAlign=top;spacingLeft=4;spacingRight=4;overflow=hidden;rotatable=0;points=[[0,0.5],[1,0.5]];portConstraint=eastwest;whiteSpace=wrap;html=1;" vertex="1" parent="wnNe19hSWPq940-PAh5z-50">
          <mxGeometry y="26" width="190" height="34" as="geometry" />
        </mxCell>
        <mxCell id="wnNe19hSWPq940-PAh5z-86" value="- &lt;b&gt;los&lt;/b&gt;: Random" style="text;strokeColor=none;fillColor=none;align=left;verticalAlign=top;spacingLeft=4;spacingRight=4;overflow=hidden;rotatable=0;points=[[0,0.5],[1,0.5]];portConstraint=eastwest;whiteSpace=wrap;html=1;" vertex="1" parent="wnNe19hSWPq940-PAh5z-50">
          <mxGeometry y="60" width="190" height="40" as="geometry" />
        </mxCell>
        <mxCell id="wnNe19hSWPq940-PAh5z-52" value="" style="line;strokeWidth=1;fillColor=none;align=left;verticalAlign=middle;spacingTop=-1;spacingLeft=3;spacingRight=3;rotatable=0;labelPosition=right;points=[];portConstraint=eastwest;strokeColor=inherit;" vertex="1" parent="wnNe19hSWPq940-PAh5z-50">
          <mxGeometry y="100" width="190" height="8" as="geometry" />
        </mxCell>
        <mxCell id="wnNe19hSWPq940-PAh5z-53" value="+ &lt;b&gt;nowaTura&lt;/b&gt;(int): void" style="text;strokeColor=none;fillColor=none;align=left;verticalAlign=top;spacingLeft=4;spacingRight=4;overflow=hidden;rotatable=0;points=[[0,0.5],[1,0.5]];portConstraint=eastwest;whiteSpace=wrap;html=1;" vertex="1" parent="wnNe19hSWPq940-PAh5z-50">
          <mxGeometry y="108" width="190" height="32" as="geometry" />
        </mxCell>
        <mxCell id="wnNe19hSWPq940-PAh5z-87" value="+ &lt;b&gt;przyjazd&lt;/b&gt;(int): void" style="text;strokeColor=none;fillColor=none;align=left;verticalAlign=top;spacingLeft=4;spacingRight=4;overflow=hidden;rotatable=0;points=[[0,0.5],[1,0.5]];portConstraint=eastwest;whiteSpace=wrap;html=1;" vertex="1" parent="wnNe19hSWPq940-PAh5z-50">
          <mxGeometry y="140" width="190" height="30" as="geometry" />
        </mxCell>
        <mxCell id="wnNe19hSWPq940-PAh5z-88" value="+ &lt;b&gt;nowiPacjenci&lt;/b&gt;(): List&amp;lt;Pacjent&amp;gt;" style="text;strokeColor=none;fillColor=none;align=left;verticalAlign=top;spacingLeft=4;spacingRight=4;overflow=hidden;rotatable=0;points=[[0,0.5],[1,0.5]];portConstraint=eastwest;whiteSpace=wrap;html=1;fontSize=12;" vertex="1" parent="wnNe19hSWPq940-PAh5z-50">
          <mxGeometry y="170" width="190" height="30" as="geometry" />
        </mxCell>
        <mxCell id="rhBKlkivPUK1FHKw_JW7-16" value="+ &lt;b&gt;dodajPacjent&lt;/b&gt;(Pacjent): void" style="text;strokeColor=none;fillColor=none;align=left;verticalAlign=top;spacingLeft=4;spacingRight=4;overflow=hidden;rotatable=0;points=[[0,0.5],[1,0.5]];portConstraint=eastwest;whiteSpace=wrap;html=1;fontSize=12;" vertex="1" parent="wnNe19hSWPq940-PAh5z-50">
          <mxGeometry y="200" width="190" height="38" as="geometry" />
        </mxCell>
        <mxCell id="rhBKlkivPUK1FHKw_JW7-22" style="edgeStyle=orthogonalEdgeStyle;rounded=0;orthogonalLoop=1;jettySize=auto;html=1;exitX=0.5;exitY=0;exitDx=0;exitDy=0;entryX=0.516;entryY=0.991;entryDx=0;entryDy=0;entryPerimeter=0;dashed=1;dashPattern=8 8;" edge="1" parent="1" source="wnNe19hSWPq940-PAh5z-23" target="NBQ4iwB7kyEO6f9DM8Vm-40">
          <mxGeometry relative="1" as="geometry">
            <Array as="points">
              <mxPoint x="756.94" y="1010" />
              <mxPoint x="756.94" y="920" />
              <mxPoint x="1006.94" y="920" />
            </Array>
          </mxGeometry>
        </mxCell>
        <mxCell id="rhBKlkivPUK1FHKw_JW7-23" style="edgeStyle=orthogonalEdgeStyle;rounded=0;orthogonalLoop=1;jettySize=auto;html=1;entryX=0.462;entryY=1.011;entryDx=0;entryDy=0;entryPerimeter=0;dashed=1;dashPattern=8 8;exitX=0.75;exitY=0;exitDx=0;exitDy=0;" edge="1" parent="1" source="wnNe19hSWPq940-PAh5z-23" target="wnNe19hSWPq940-PAh5z-13">
          <mxGeometry relative="1" as="geometry">
            <mxPoint x="796.94" y="990" as="sourcePoint" />
            <Array as="points">
              <mxPoint x="796.94" y="1010" />
              <mxPoint x="796.94" y="990" />
              <mxPoint x="1407.94" y="990" />
            </Array>
          </mxGeometry>
        </mxCell>
        <mxCell id="rhBKlkivPUK1FHKw_JW7-37" style="edgeStyle=orthogonalEdgeStyle;rounded=0;orthogonalLoop=1;jettySize=auto;html=1;exitX=1;exitY=0.5;exitDx=0;exitDy=0;entryX=0;entryY=0.5;entryDx=0;entryDy=0;dashed=1;dashPattern=8 8;" edge="1" parent="1" source="wnNe19hSWPq940-PAh5z-51" target="wnNe19hSWPq940-PAh5z-8">
          <mxGeometry relative="1" as="geometry" />
        </mxCell>
        <mxCell id="rhBKlkivPUK1FHKw_JW7-52" style="edgeStyle=orthogonalEdgeStyle;rounded=0;orthogonalLoop=1;jettySize=auto;html=1;exitX=1;exitY=0.5;exitDx=0;exitDy=0;entryX=0;entryY=0.5;entryDx=0;entryDy=0;dashed=1;dashPattern=8 8;" edge="1" parent="1" source="rhBKlkivPUK1FHKw_JW7-19" target="wnNe19hSWPq940-PAh5z-20">
          <mxGeometry relative="1" as="geometry">
            <Array as="points">
              <mxPoint x="756.94" y="307" />
            </Array>
          </mxGeometry>
        </mxCell>
        <mxCell id="rhBKlkivPUK1FHKw_JW7-55" style="edgeStyle=orthogonalEdgeStyle;rounded=0;orthogonalLoop=1;jettySize=auto;html=1;exitX=0;exitY=0.5;exitDx=0;exitDy=0;entryX=1;entryY=0.5;entryDx=0;entryDy=0;dashed=1;dashPattern=8 8;" edge="1" parent="1" source="NBQ4iwB7kyEO6f9DM8Vm-14" target="rhBKlkivPUK1FHKw_JW7-54">
          <mxGeometry relative="1" as="geometry">
            <Array as="points">
              <mxPoint x="1296.94" y="768" />
            </Array>
          </mxGeometry>
        </mxCell>
      </root>
    </mxGraphModel>
  </diagram>
</mxfile>
